<?xml version="1.0" encoding="utf-8"?>
<!-- Generator: Adobe Illustrator 18.0.0, SVG Export Plug-In . SVG Version: 6.00 Build 0)  -->
<!DOCTYPE svg PUBLIC "-//W3C//DTD SVG 1.1//EN" "http://www.w3.org/Graphics/SVG/1.1/DTD/svg11.dtd">
<svg version="1.1" id="Layer_1" xmlns="http://www.w3.org/2000/svg" xmlns:xlink="http://www.w3.org/1999/xlink" x="0px" y="0px"
	 viewBox="0 0 202.9 202.9" enable-background="new 0 0 202.9 202.9" xml:space="preserve">
<circle fill="none" cx="101.4" cy="101.4" r="101.4"/>
<g>
	<g>
		<path fill="#FFFFFF" d="M33.3,61.3c-0.1-0.9-0.4-1.8-0.7-2.7c-0.4-0.9-0.9-1.8-1.5-2.6l-3.8,1.9c0.5,0.6,0.9,1.2,1.1,1.8
			c0.3,0.6,0.4,1.2,0.6,1.8c0.1,0.7,0.2,1.4,0.1,2.1c-0.1,0.7-0.3,1.4-0.7,2.1c-0.4,0.9-1,1.7-1.6,2.2c-0.6,0.6-1.3,1-2,1.2
			c-0.8,0.3-1.7,0.4-2.6,0.4c-1,0-2-0.3-3-0.8c-1.2-0.6-2-1.2-2.6-2c-0.6-0.7-1-1.5-1.2-2.1c-0.3-0.9-0.4-1.7-0.3-2.5
			c0.1-0.8,0.3-1.7,0.8-2.6c0.3-0.7,0.7-1.2,1.1-1.7c0.4-0.4,0.8-0.8,1.2-1.1c0.5-0.3,1-0.5,1.6-0.7c0.6-0.2,1.2-0.3,1.7-0.3
			l-0.7-4.3c-0.9,0.1-1.8,0.4-2.6,0.7c-0.8,0.3-1.5,0.7-2.2,1.1c-0.7,0.5-1.4,1.1-2.1,1.9c-0.7,0.8-1.2,1.7-1.7,2.7
			c-0.5,0.9-0.8,1.8-1,2.7c-0.2,0.8-0.3,1.6-0.3,2.4c0,0.7,0,1.4,0.2,2c0.1,0.6,0.2,1.1,0.4,1.6c0.5,1.4,1.3,2.7,2.4,3.7
			c1.1,1.1,2.3,2,3.6,2.6c1.5,0.7,3.1,1.2,4.5,1.2c1.5,0.1,2.8-0.1,3.9-0.5c1.6-0.5,2.8-1.3,3.8-2.4c1-1.1,1.8-2.2,2.5-3.6
			c0.5-1,0.8-2,1-3C33.4,63.3,33.5,62.3,33.3,61.3z"/>
	</g>
	<g>
		
			<rect x="22.7" y="43.1" transform="matrix(0.7702 0.6378 -0.6378 0.7702 36.4956 -10.8918)" fill="#FFFFFF" width="21.4" height="4.2"/>
	</g>
	<g>
		<path fill="#FFFFFF" d="M51.5,41.7l-5-6.7l4.9-3.6l8.9,3.8l3.8-2.8l-9.2-4c0.7-1.1,1.1-2.3,1.1-3.5c0-0.8-0.1-1.5-0.4-2.2
			c-0.3-0.6-0.6-1.2-1-1.7c-0.4-0.6-1-1.2-1.7-1.7c-0.7-0.6-1.6-1-2.6-1.1c-0.6-0.1-1.1-0.1-1.6,0c-0.5,0.1-1,0.2-1.4,0.4
			c-0.4,0.2-0.8,0.4-1.2,0.6c-0.4,0.2-0.7,0.4-1,0.6l-9.8,7.3l12.7,17.1L51.5,41.7z M41.3,27.8l5.9-4.4c0.3-0.2,0.7-0.5,1-0.7
			c0.3-0.2,0.7-0.3,1.1-0.3c0.3,0,0.5,0,0.9,0.2c0.3,0.1,0.7,0.4,1,0.8c0.2,0.3,0.4,0.6,0.5,0.9c0.1,0.3,0.1,0.7,0.1,1
			c-0.1,0.4-0.2,0.8-0.5,1c-0.3,0.3-0.5,0.5-0.8,0.7l-6.2,4.6L41.3,27.8z"/>
	</g>
	<g>
		<path fill="#FFFFFF" d="M66.3,25.1c1,1.1,2,1.9,3.1,2.5c1.5,0.8,2.9,1.1,4.4,1.1c1.4,0,2.9-0.2,4.3-0.7c1.1-0.4,2-0.8,2.9-1.3
			s1.6-1.2,2.2-2c0.5-0.7,1-1.5,1.4-2.4c0.4-0.9,0.7-1.9,0.9-2.9l-4-1.4c-0.1,0.8-0.2,1.4-0.5,2c-0.3,0.6-0.6,1.1-0.9,1.6
			c-0.4,0.6-0.9,1.1-1.5,1.5c-0.5,0.4-1.2,0.7-2,1c-1,0.3-1.9,0.4-2.7,0.4c-0.8-0.1-1.6-0.3-2.2-0.6c-0.7-0.4-1.4-0.9-2.1-1.6
			c-0.6-0.7-1.1-1.6-1.5-2.7c-0.4-1.2-0.5-2.3-0.4-3.3c0.1-0.9,0.4-1.7,0.7-2.4c0.4-0.8,0.9-1.5,1.6-2c0.6-0.5,1.5-0.9,2.4-1.3
			c0.7-0.2,1.4-0.4,2-0.4s1.1,0,1.6,0.1c0.6,0.1,1.1,0.3,1.6,0.7c0.5,0.3,1,0.6,1.5,1l2.6-3.5c-0.7-0.6-1.5-1-2.3-1.4
			c-0.8-0.4-1.6-0.6-2.3-0.8c-0.9-0.2-1.8-0.3-2.8-0.2c-1,0.1-2,0.3-3.1,0.6c-1,0.3-1.9,0.7-2.6,1.2c-0.7,0.4-1.4,0.9-1.9,1.4
			c-0.5,0.5-1,1-1.3,1.5c-0.4,0.5-0.7,1-0.9,1.4c-0.7,1.3-1,2.8-1,4.3c0,1.5,0.2,3,0.6,4.4C64.6,22.6,65.3,24,66.3,25.1z"/>
	</g>
	<g>
		<path fill="#FFFFFF" d="M106.2,17.7c-0.1,0.7-0.5,1.2-1,1.7c-0.5,0.3-1,0.6-1.7,0.7c-0.7,0.1-1.4,0.2-2.2,0.2
			c-0.6,0-1.3,0-1.9-0.1c-0.6-0.1-1.2-0.3-1.7-0.7c-0.5-0.4-0.9-0.9-0.9-1.5c-0.1-0.6-0.1-1.1-0.1-1.7V2.5l-4.2,0l0,14.2
			c0,0.9,0.1,1.8,0.3,2.8c0.2,1,0.7,1.9,1.5,2.7c0.5,0.5,1,0.9,1.6,1.1c0.6,0.3,1.2,0.5,1.8,0.6c0.6,0.1,1.3,0.2,1.9,0.3
			c0.6,0,1.2,0.1,1.8,0.1c1.2,0,2.5-0.1,3.8-0.4c1.3-0.2,2.4-0.8,3.3-1.5c0.9-0.8,1.5-1.7,1.8-2.7c0.2-1,0.4-2,0.4-3.1l0-14.2h-4.2
			v13.3C106.4,16.4,106.3,17,106.2,17.7z"/>
	</g>
	<g>
		<polygon fill="#FFFFFF" points="134,30.3 135.2,26.4 123,22.7 128.1,6.1 124,4.9 117.7,25.2 		"/>
	</g>
	<g>
		<path fill="#FFFFFF" d="M140.9,34.2l5.2-2.8l7.9,5.7l-1,5.8l3.8,2.7l3.9-23.4l-2.6-1.9l-20.9,11.2L140.9,34.2z M155.7,26.3l-1,6.3
			l-4.6-3.3L155.7,26.3z"/>
	</g>
	<g>
		<path fill="#FFFFFF" d="M161.6,52.1l6.7-4.9l3.6,4.9l-3.8,8.9l2.8,3.8l4-9.2c1.1,0.7,2.3,1.1,3.4,1.2c0.8,0,1.5-0.1,2.2-0.4
			c0.6-0.3,1.2-0.6,1.7-1c0.6-0.4,1.2-1,1.8-1.7c0.6-0.7,1-1.5,1.1-2.6c0.1-0.6,0.1-1.1,0-1.6c-0.1-0.5-0.2-1-0.4-1.4
			c-0.2-0.4-0.4-0.8-0.6-1.2c-0.2-0.4-0.4-0.7-0.6-1l-7.2-9.9l-17.2,12.6L161.6,52.1z M175.5,41.9l4.4,6c0.2,0.3,0.5,0.7,0.7,1
			c0.2,0.3,0.3,0.7,0.3,1.1c0,0.3,0,0.5-0.2,0.9c-0.1,0.3-0.4,0.7-0.8,1c-0.3,0.2-0.6,0.4-0.9,0.5c-0.3,0.1-0.7,0.1-1,0.1
			c-0.4-0.1-0.8-0.2-1-0.5c-0.3-0.3-0.5-0.5-0.7-0.8l-4.6-6.2L175.5,41.9z"/>
	</g>
	<g>
		<polygon fill="#FFFFFF" points="167.9,150.3 174.6,138.3 179.2,140.9 175.4,147.8 178.9,149.7 182.7,142.9 186.1,144.8 
			179.9,156.1 183.4,158 191.7,143.1 173.1,132.7 164.4,148.4 		"/>
	</g>
	<g>
		<path fill="#FFFFFF" d="M161.7,155.2c-1.6-0.1-3.1,0.2-4.4,0.8c-1.3,0.6-2.5,1.4-3.6,2.5c-0.8,0.8-1.5,1.6-2,2.4
			c-0.5,0.8-0.9,1.7-1.1,2.8c-0.2,0.8-0.3,1.8-0.3,2.8c0,1,0.2,2,0.4,3l4.2-0.5c-0.3-0.7-0.4-1.4-0.4-2.1c0-0.7,0-1.3,0.1-1.8
			c0.1-0.7,0.4-1.4,0.7-2c0.3-0.6,0.8-1.2,1.4-1.7c0.7-0.7,1.5-1.2,2.3-1.5c0.8-0.3,1.5-0.4,2.3-0.4c0.8,0,1.7,0.2,2.6,0.6
			c0.9,0.4,1.7,1,2.5,1.8c0.9,0.9,1.5,1.9,1.8,2.8c0.3,0.9,0.4,1.7,0.4,2.4c0,0.9-0.2,1.7-0.6,2.5c-0.4,0.7-0.9,1.5-1.7,2.2
			c-0.5,0.5-1.1,0.9-1.6,1.2c-0.5,0.3-1,0.5-1.5,0.6c-0.6,0.1-1.1,0.2-1.8,0.1c-0.6,0-1.2-0.1-1.7-0.3l-0.9,4.3
			c0.9,0.2,1.8,0.3,2.7,0.3c0.9,0,1.7-0.1,2.4-0.3c0.9-0.2,1.7-0.5,2.6-1c0.9-0.5,1.7-1.1,2.6-1.9c0.8-0.7,1.4-1.4,1.9-2.1
			c0.5-0.7,0.9-1.4,1.1-2.1c0.3-0.7,0.5-1.3,0.6-1.9c0.1-0.6,0.2-1.2,0.2-1.6c0-1.5-0.3-2.9-0.9-4.4c-0.6-1.4-1.4-2.6-2.4-3.7
			c-1.2-1.3-2.4-2.2-3.8-2.7C164.2,155.6,162.9,155.2,161.7,155.2z"/>
	</g>
	<g>
		<path fill="#FFFFFF" d="M145.5,173.8c-1.1-1-2.3-1.8-3.6-2.2c-1.3-0.5-2.7-0.7-4.1-0.7c-1.5,0-2.9,0.4-4.3,1
			c-1.4,0.7-2.7,1.5-3.7,2.6c-1,1.1-1.7,2.3-2.2,3.6c-0.5,1.3-0.7,2.7-0.6,4.2c0.1,1.5,0.4,2.9,1.1,4.4c0.7,1.5,1.5,2.7,2.6,3.7
			c1.1,1,2.3,1.8,3.6,2.2c1.3,0.5,2.7,0.7,4.1,0.7c1.5,0,2.9-0.4,4.4-1.1c1.4-0.7,2.7-1.5,3.6-2.6c1-1.1,1.7-2.3,2.2-3.6
			c0.5-1.3,0.7-2.7,0.6-4.2c-0.1-1.5-0.4-2.9-1.1-4.4C147.4,176,146.6,174.8,145.5,173.8z M144.9,182.1c0,0.9-0.1,1.8-0.4,2.6
			c-0.3,0.8-0.7,1.5-1.3,2.2c-0.6,0.7-1.3,1.2-2.2,1.6c-0.9,0.4-1.8,0.6-2.6,0.6c-0.9,0-1.7-0.1-2.5-0.4c-0.8-0.3-1.5-0.8-2.2-1.4
			c-0.7-0.6-1.2-1.4-1.6-2.4c-0.4-1-0.7-1.9-0.7-2.8c0-0.9,0.1-1.8,0.4-2.6c0.3-0.8,0.7-1.5,1.3-2.2c0.6-0.7,1.3-1.2,2.2-1.6
			c0.9-0.4,1.7-0.6,2.6-0.6c0.9,0,1.7,0.1,2.5,0.4c0.8,0.3,1.5,0.8,2.2,1.4c0.7,0.6,1.2,1.4,1.6,2.4
			C144.6,180.2,144.8,181.2,144.9,182.1z"/>
	</g>
	<g>
		<polygon fill="#FFFFFF" points="113.6,178.6 114.8,191.7 101.9,179.7 99.4,179.9 101.4,201.1 105.6,200.7 104.3,187.6 
			117.2,199.6 119.8,199.4 117.8,178.2 		"/>
	</g>
	<g>
		<path fill="#FFFFFF" d="M86,197.1c1.2-0.7,2.2-1.7,3.1-2.9c0.9-1.2,1.5-2.6,1.9-4.1c0.4-1.6,0.5-3.1,0.3-4.5
			c-0.2-1.5-0.7-2.8-1.4-4c-0.7-1.2-1.7-2.2-2.8-3.1c-1.2-0.9-2.5-1.5-4.1-1.9c-1.5-0.4-3-0.5-4.5-0.2c-1.4,0.2-2.8,0.7-4,1.4
			c-1.2,0.7-2.2,1.7-3.1,2.9c-0.9,1.2-1.5,2.6-1.9,4.1c-0.4,1.6-0.5,3.1-0.3,4.5c0.2,1.5,0.7,2.8,1.4,4c0.7,1.2,1.7,2.2,2.8,3.1
			c1.2,0.9,2.5,1.5,4.1,1.9c1.5,0.4,3,0.5,4.5,0.2C83.5,198.3,84.8,197.8,86,197.1z M78.6,194.3c-0.9-0.2-1.8-0.6-2.5-1.1
			c-0.7-0.5-1.3-1.2-1.7-1.9c-0.4-0.7-0.7-1.6-0.8-2.5c-0.1-0.9-0.1-1.9,0.2-2.9c0.3-1,0.6-1.9,1.2-2.7c0.5-0.8,1.2-1.4,1.9-1.8
			c0.7-0.5,1.5-0.8,2.4-0.9s1.8-0.1,2.7,0.1c0.9,0.2,1.7,0.6,2.4,1.1c0.7,0.5,1.3,1.2,1.7,1.9c0.4,0.8,0.7,1.6,0.8,2.5
			c0.1,0.9,0.1,1.9-0.2,2.9c-0.3,1-0.6,1.9-1.2,2.7c-0.5,0.8-1.2,1.4-1.9,1.8c-0.7,0.5-1.5,0.7-2.4,0.9
			C80.4,194.5,79.5,194.5,78.6,194.3z"/>
	</g>
	<g>
		<polygon fill="#FFFFFF" points="63.4,169.8 55.9,180.7 55.9,168.7 44.7,173 52.1,162.1 48.6,159.7 36.6,177.4 39.3,179.2 
			51.9,174.6 52.2,187.9 54.9,189.8 66.8,172.1 		"/>
	</g>
	<g>
		<polygon fill="#FFFFFF" points="41.3,151 38.8,147.8 32.3,152.8 20.5,151.8 23.9,156.2 30.8,156.6 29.5,163.4 32.9,167.7 
			34.9,156 		"/>
	</g>
	<g>
		<path fill="#FFFFFF" d="M17.1,106.3c-0.1-1.5-0.1-3.1,0-4.6l5.4,3.1L17,86.1l-9.6,16.9l6.2-1.8c0,1.7,0,3.5,0,5.2
			c0.4,12.2,3.3,23.9,8.6,34.8l3.1-1.5C20.2,129.3,17.5,118,17.1,106.3z"/>
	</g>
	<g>
		<path fill="#FFFFFF" d="M185.2,100.3c0.1,2.8,0.1,5.7-0.1,8.5l-5.3-3.4l4.6,18.9l10.4-16.5l-6.3,1.5c0.1-2,0.2-4.1,0.2-6.1
			c0-1,0-2.1-0.1-3.1c-0.4-10.3-2.5-20.4-6.3-29.8l-3.2,1.3C182.8,80.8,184.9,90.4,185.2,100.3z"/>
	</g>
</g>
</svg>
